<svg id="Capa_1" enable-background="new 0 0 512 512" height="512" viewBox="0 0 512 512" width="512" xmlns="http://www.w3.org/2000/svg"><g><path d="m415.868 124.389-20 176.331 20 144.465 96.132 31.867v-320.796z" fill="#fff79f"/><path d="m351.371 137.245h-95.37l-20 163.476 20 176.331 159.867-31.867v-320.796z" fill="#ffda44"/><path d="m160.629 137.245-64.495-12.856h-.001l-20 162.611 20 158.185h.001l159.867 31.867v-339.807z" fill="#fff79f"/><path d="m0 156.256v320.796l96.133-31.867v-320.796z" fill="#ffda44"/><path d="m351.602 130.549c0-52.799-42.802-95.601-95.6-95.602l-20 95.602 20 135.2 67.6-67.6c17.299-17.3 28-41.2 28-67.6z" fill="#6680ff"/><path d="m256 34.948c-52.799 0-95.602 42.802-95.602 95.602 0 26.399 10.701 50.3 28.001 67.6l67.601 67.6.001-.001v-230.801z" fill="#80aaff"/><path d="m317.867 130.549c0-34.113-27.753-61.866-61.866-61.867l-20 61.867 20 61.867c34.114 0 61.866-27.754 61.866-61.867z" fill="#80aaff"/><path d="m256 68.682c-34.114 0-61.867 27.754-61.867 61.867s27.753 61.867 61.867 61.867h.001v-123.734z" fill="#96c8ef"/><path d="m287.867 130.549c0-17.599-14.267-31.866-31.866-31.867l-20 31.867 20 31.867c17.6 0 31.866-14.267 31.866-31.867z" fill="#efe2dd"/><path d="m256 98.682c-17.6 0-31.867 14.267-31.867 31.867s14.267 31.867 31.867 31.867h.001v-63.734z" fill="#fff5f5"/></g></svg>