<svg id="Capa_1" enable-background="new 0 0 512 512" height="512" viewBox="0 0 512 512" width="512" xmlns="http://www.w3.org/2000/svg"><g><path d="m196 270h-45c-33.084 0-60-26.916-60-60v-15h30v15c0 16.542 13.458 30 30 30h45z" fill="#e1bb78"/><path d="m331 300h-15v-30h15c16.542 0 30-13.458 30-30v-45h30v45c0 33.084-26.916 60-60 60z" fill="#c9885b"/><path d="m331 195h-95l20 317h75z" fill="#a05f4b"/><path d="m181 195h75v317h-75z" fill="#c9885b"/><path d="m437 60h-23.909c-17.067-19.157-41.116-30-67.091-30-5.097 0-10.184.435-15.209 1.298-19.68-19.996-46.449-31.298-74.791-31.298l-20 120 20 90h181c41.355 0 75-33.645 75-75s-33.645-75-75-75z" fill="#00aa95"/><path d="m161.112 60h-86.112c-41.355 0-75 33.645-75 75s33.645 75 75 75h181v-210c-40.784 0-77.665 23.715-94.888 60z" fill="#00dd80"/></g></svg>